<?xml version="1.0" encoding="UTF-8" standalone="no"?>
<!DOCTYPE svg PUBLIC "-//W3C//DTD SVG 1.1//EN"
 "http://www.w3.org/Graphics/SVG/1.1/DTD/svg11.dtd">
<!-- Generated by graphviz version 2.40.1 (20161225.0304)
 -->
<!-- Title: Tree Pages: 1 -->
<svg width="818pt" height="433pt"
 viewBox="0.00 0.00 818.00 433.00" xmlns="http://www.w3.org/2000/svg" xmlns:xlink="http://www.w3.org/1999/xlink">
<g id="graph0" class="graph" transform="scale(1 1) rotate(0) translate(4 429)">
<title>Tree</title>
<polygon fill="#ffffff" stroke="transparent" points="-4,4 -4,-429 814,-429 814,4 -4,4"/>
<!-- 0 -->
<g id="node1" class="node">
<title>0</title>
<path fill="#fcfffd" stroke="#000000" d="M463.5,-425C463.5,-425 347.5,-425 347.5,-425 341.5,-425 335.5,-419 335.5,-413 335.5,-413 335.5,-354 335.5,-354 335.5,-348 341.5,-342 347.5,-342 347.5,-342 463.5,-342 463.5,-342 469.5,-342 475.5,-348 475.5,-354 475.5,-354 475.5,-413 475.5,-413 475.5,-419 469.5,-425 463.5,-425"/>
<text text-anchor="start" x="346" y="-409.8" font-family="Helvetica,sans-Serif" font-size="14.00" fill="#000000">petal.length ≤ 13.5</text>
<text text-anchor="start" x="367.5" y="-394.8" font-family="Helvetica,sans-Serif" font-size="14.00" fill="#000000">gini = 0.666</text>
<text text-anchor="start" x="357.5" y="-379.8" font-family="Helvetica,sans-Serif" font-size="14.00" fill="#000000">samples = 100</text>
<text text-anchor="start" x="343.5" y="-364.8" font-family="Helvetica,sans-Serif" font-size="14.00" fill="#000000">value = [31, 35, 34]</text>
<text text-anchor="start" x="357.5" y="-349.8" font-family="Helvetica,sans-Serif" font-size="14.00" fill="#000000">class = Setosa</text>
</g>
<!-- 1 -->
<g id="node2" class="node">
<title>1</title>
<path fill="#f4c7a8" stroke="#000000" d="M385,-306C385,-306 278,-306 278,-306 272,-306 266,-300 266,-294 266,-294 266,-235 266,-235 266,-229 272,-223 278,-223 278,-223 385,-223 385,-223 391,-223 397,-229 397,-235 397,-235 397,-294 397,-294 397,-300 391,-306 385,-306"/>
<text text-anchor="start" x="279" y="-290.8" font-family="Helvetica,sans-Serif" font-size="14.00" fill="#000000">petal.width ≤ 3.5</text>
<text text-anchor="start" x="293.5" y="-275.8" font-family="Helvetica,sans-Serif" font-size="14.00" fill="#000000">gini = 0.552</text>
<text text-anchor="start" x="287.5" y="-260.8" font-family="Helvetica,sans-Serif" font-size="14.00" fill="#000000">samples = 47</text>
<text text-anchor="start" x="274" y="-245.8" font-family="Helvetica,sans-Serif" font-size="14.00" fill="#000000">value = [28, 13, 6]</text>
<text text-anchor="start" x="283.5" y="-230.8" font-family="Helvetica,sans-Serif" font-size="14.00" fill="#000000">class = Setosa</text>
</g>
<!-- 0&#45;&gt;1 -->
<g id="edge1" class="edge">
<title>0&#45;&gt;1</title>
<path fill="none" stroke="#000000" d="M379.6184,-341.8796C374.1858,-333.1434 368.4008,-323.8404 362.7947,-314.8253"/>
<polygon fill="#000000" stroke="#000000" points="365.7451,-312.9418 357.4921,-306.2981 359.8007,-316.6383 365.7451,-312.9418"/>
<text text-anchor="middle" x="351.8153" y="-326.945" font-family="Helvetica,sans-Serif" font-size="14.00" fill="#000000">True</text>
</g>
<!-- 8 -->
<g id="node9" class="node">
<title>8</title>
<path fill="#e7d9fa" stroke="#000000" d="M534,-306C534,-306 427,-306 427,-306 421,-306 415,-300 415,-294 415,-294 415,-235 415,-235 415,-229 421,-223 427,-223 427,-223 534,-223 534,-223 540,-223 546,-229 546,-235 546,-235 546,-294 546,-294 546,-300 540,-306 534,-306"/>
<text text-anchor="start" x="428" y="-290.8" font-family="Helvetica,sans-Serif" font-size="14.00" fill="#000000">petal.width ≤ 1.5</text>
<text text-anchor="start" x="442.5" y="-275.8" font-family="Helvetica,sans-Serif" font-size="14.00" fill="#000000">gini = 0.545</text>
<text text-anchor="start" x="436.5" y="-260.8" font-family="Helvetica,sans-Serif" font-size="14.00" fill="#000000">samples = 53</text>
<text text-anchor="start" x="423" y="-245.8" font-family="Helvetica,sans-Serif" font-size="14.00" fill="#000000">value = [3, 22, 28]</text>
<text text-anchor="start" x="432.5" y="-230.8" font-family="Helvetica,sans-Serif" font-size="14.00" fill="#000000">class = Setosa</text>
</g>
<!-- 0&#45;&gt;8 -->
<g id="edge8" class="edge">
<title>0&#45;&gt;8</title>
<path fill="none" stroke="#000000" d="M431.7314,-341.8796C437.2373,-333.1434 443.1006,-323.8404 448.7824,-314.8253"/>
<polygon fill="#000000" stroke="#000000" points="451.7857,-316.6242 454.1567,-306.2981 445.8637,-312.8919 451.7857,-316.6242"/>
<text text-anchor="middle" x="459.6863" y="-326.9789" font-family="Helvetica,sans-Serif" font-size="14.00" fill="#000000">False</text>
</g>
<!-- 2 -->
<g id="node3" class="node">
<title>2</title>
<path fill="#4fe88f" stroke="#000000" d="M242,-187C242,-187 135,-187 135,-187 129,-187 123,-181 123,-175 123,-175 123,-116 123,-116 123,-110 129,-104 135,-104 135,-104 242,-104 242,-104 248,-104 254,-110 254,-116 254,-116 254,-175 254,-175 254,-181 248,-187 242,-187"/>
<text text-anchor="start" x="131" y="-171.8" font-family="Helvetica,sans-Serif" font-size="14.00" fill="#000000">sepal.length ≤ 2.5</text>
<text text-anchor="start" x="155" y="-156.8" font-family="Helvetica,sans-Serif" font-size="14.00" fill="#000000">gini = 0.18</text>
<text text-anchor="start" x="144.5" y="-141.8" font-family="Helvetica,sans-Serif" font-size="14.00" fill="#000000">samples = 10</text>
<text text-anchor="start" x="139" y="-126.8" font-family="Helvetica,sans-Serif" font-size="14.00" fill="#000000">value = [0, 9, 1]</text>
<text text-anchor="start" x="140.5" y="-111.8" font-family="Helvetica,sans-Serif" font-size="14.00" fill="#000000">class = Setosa</text>
</g>
<!-- 1&#45;&gt;2 -->
<g id="edge2" class="edge">
<title>1&#45;&gt;2</title>
<path fill="none" stroke="#000000" d="M281.4855,-222.8796C270.2299,-213.513 258.1912,-203.4948 246.6354,-193.8784"/>
<polygon fill="#000000" stroke="#000000" points="248.6534,-191.0043 238.7279,-187.2981 244.1758,-196.385 248.6534,-191.0043"/>
</g>
<!-- 5 -->
<g id="node6" class="node">
<title>5</title>
<path fill="#eca471" stroke="#000000" d="M383,-187C383,-187 284,-187 284,-187 278,-187 272,-181 272,-175 272,-175 272,-116 272,-116 272,-110 278,-104 284,-104 284,-104 383,-104 383,-104 389,-104 395,-110 395,-116 395,-116 395,-175 395,-175 395,-181 389,-187 383,-187"/>
<text text-anchor="start" x="281" y="-171.8" font-family="Helvetica,sans-Serif" font-size="14.00" fill="#000000">petal.width ≤ 4.5</text>
<text text-anchor="start" x="295.5" y="-156.8" font-family="Helvetica,sans-Serif" font-size="14.00" fill="#000000">gini = 0.397</text>
<text text-anchor="start" x="289.5" y="-141.8" font-family="Helvetica,sans-Serif" font-size="14.00" fill="#000000">samples = 37</text>
<text text-anchor="start" x="280" y="-126.8" font-family="Helvetica,sans-Serif" font-size="14.00" fill="#000000">value = [28, 4, 5]</text>
<text text-anchor="start" x="285.5" y="-111.8" font-family="Helvetica,sans-Serif" font-size="14.00" fill="#000000">class = Setosa</text>
</g>
<!-- 1&#45;&gt;5 -->
<g id="edge5" class="edge">
<title>1&#45;&gt;5</title>
<path fill="none" stroke="#000000" d="M332.1995,-222.8796C332.3372,-214.6838 332.4834,-205.9891 332.626,-197.5013"/>
<polygon fill="#000000" stroke="#000000" points="336.1289,-197.3555 332.7975,-187.2981 329.1299,-197.2378 336.1289,-197.3555"/>
</g>
<!-- 3 -->
<g id="node4" class="node">
<title>3</title>
<path fill="#9cf2c0" stroke="#000000" d="M103,-68C103,-68 12,-68 12,-68 6,-68 0,-62 0,-56 0,-56 0,-12 0,-12 0,-6 6,0 12,0 12,0 103,0 103,0 109,0 115,-6 115,-12 115,-12 115,-56 115,-56 115,-62 109,-68 103,-68"/>
<text text-anchor="start" x="19.5" y="-52.8" font-family="Helvetica,sans-Serif" font-size="14.00" fill="#000000">gini = 0.444</text>
<text text-anchor="start" x="18" y="-37.8" font-family="Helvetica,sans-Serif" font-size="14.00" fill="#000000">samples = 3</text>
<text text-anchor="start" x="8" y="-22.8" font-family="Helvetica,sans-Serif" font-size="14.00" fill="#000000">value = [0, 2, 1]</text>
<text text-anchor="start" x="9.5" y="-7.8" font-family="Helvetica,sans-Serif" font-size="14.00" fill="#000000">class = Setosa</text>
</g>
<!-- 2&#45;&gt;3 -->
<g id="edge3" class="edge">
<title>2&#45;&gt;3</title>
<path fill="none" stroke="#000000" d="M139.7204,-103.9815C128.5985,-94.5151 116.7872,-84.462 105.6901,-75.0168"/>
<polygon fill="#000000" stroke="#000000" points="107.6396,-72.08 97.756,-68.2637 103.1025,-77.4105 107.6396,-72.08"/>
</g>
<!-- 4 -->
<g id="node5" class="node">
<title>4</title>
<path fill="#39e581" stroke="#000000" d="M236,-68C236,-68 145,-68 145,-68 139,-68 133,-62 133,-56 133,-56 133,-12 133,-12 133,-6 139,0 145,0 145,0 236,0 236,0 242,0 248,-6 248,-12 248,-12 248,-56 248,-56 248,-62 242,-68 236,-68"/>
<text text-anchor="start" x="161" y="-52.8" font-family="Helvetica,sans-Serif" font-size="14.00" fill="#000000">gini = 0.0</text>
<text text-anchor="start" x="151" y="-37.8" font-family="Helvetica,sans-Serif" font-size="14.00" fill="#000000">samples = 7</text>
<text text-anchor="start" x="141" y="-22.8" font-family="Helvetica,sans-Serif" font-size="14.00" fill="#000000">value = [0, 7, 0]</text>
<text text-anchor="start" x="142.5" y="-7.8" font-family="Helvetica,sans-Serif" font-size="14.00" fill="#000000">class = Setosa</text>
</g>
<!-- 2&#45;&gt;4 -->
<g id="edge4" class="edge">
<title>2&#45;&gt;4</title>
<path fill="none" stroke="#000000" d="M189.2447,-103.9815C189.3947,-95.618 189.553,-86.7965 189.7046,-78.3409"/>
<polygon fill="#000000" stroke="#000000" points="193.2054,-78.3249 189.8854,-68.2637 186.2065,-78.1993 193.2054,-78.3249"/>
</g>
<!-- 6 -->
<g id="node7" class="node">
<title>6</title>
<path fill="#e58139" stroke="#000000" d="M381,-68C381,-68 282,-68 282,-68 276,-68 270,-62 270,-56 270,-56 270,-12 270,-12 270,-6 276,0 282,0 282,0 381,0 381,0 387,0 393,-6 393,-12 393,-12 393,-56 393,-56 393,-62 387,-68 381,-68"/>
<text text-anchor="start" x="302" y="-52.8" font-family="Helvetica,sans-Serif" font-size="14.00" fill="#000000">gini = 0.0</text>
<text text-anchor="start" x="287.5" y="-37.8" font-family="Helvetica,sans-Serif" font-size="14.00" fill="#000000">samples = 18</text>
<text text-anchor="start" x="278" y="-22.8" font-family="Helvetica,sans-Serif" font-size="14.00" fill="#000000">value = [18, 0, 0]</text>
<text text-anchor="start" x="283.5" y="-7.8" font-family="Helvetica,sans-Serif" font-size="14.00" fill="#000000">class = Setosa</text>
</g>
<!-- 5&#45;&gt;6 -->
<g id="edge6" class="edge">
<title>5&#45;&gt;6</title>
<path fill="none" stroke="#000000" d="M332.7553,-103.9815C332.6053,-95.618 332.447,-86.7965 332.2954,-78.3409"/>
<polygon fill="#000000" stroke="#000000" points="335.7935,-78.1993 332.1146,-68.2637 328.7946,-78.3249 335.7935,-78.1993"/>
</g>
<!-- 7 -->
<g id="node8" class="node">
<title>7</title>
<path fill="#f6d2b8" stroke="#000000" d="M522,-68C522,-68 423,-68 423,-68 417,-68 411,-62 411,-56 411,-56 411,-12 411,-12 411,-6 417,0 423,0 423,0 522,0 522,0 528,0 534,-6 534,-12 534,-12 534,-56 534,-56 534,-62 528,-68 522,-68"/>
<text text-anchor="start" x="434.5" y="-52.8" font-family="Helvetica,sans-Serif" font-size="14.00" fill="#000000">gini = 0.609</text>
<text text-anchor="start" x="428.5" y="-37.8" font-family="Helvetica,sans-Serif" font-size="14.00" fill="#000000">samples = 19</text>
<text text-anchor="start" x="419" y="-22.8" font-family="Helvetica,sans-Serif" font-size="14.00" fill="#000000">value = [10, 4, 5]</text>
<text text-anchor="start" x="424.5" y="-7.8" font-family="Helvetica,sans-Serif" font-size="14.00" fill="#000000">class = Setosa</text>
</g>
<!-- 5&#45;&gt;7 -->
<g id="edge7" class="edge">
<title>5&#45;&gt;7</title>
<path fill="none" stroke="#000000" d="M385.2585,-103.9815C397.1742,-94.4232 409.8356,-84.2668 421.7097,-74.7419"/>
<polygon fill="#000000" stroke="#000000" points="424.1752,-77.2511 429.7856,-68.2637 419.7951,-71.7907 424.1752,-77.2511"/>
</g>
<!-- 9 -->
<g id="node10" class="node">
<title>9</title>
<path fill="#39e581" stroke="#000000" d="M522,-179.5C522,-179.5 431,-179.5 431,-179.5 425,-179.5 419,-173.5 419,-167.5 419,-167.5 419,-123.5 419,-123.5 419,-117.5 425,-111.5 431,-111.5 431,-111.5 522,-111.5 522,-111.5 528,-111.5 534,-117.5 534,-123.5 534,-123.5 534,-167.5 534,-167.5 534,-173.5 528,-179.5 522,-179.5"/>
<text text-anchor="start" x="447" y="-164.3" font-family="Helvetica,sans-Serif" font-size="14.00" fill="#000000">gini = 0.0</text>
<text text-anchor="start" x="437" y="-149.3" font-family="Helvetica,sans-Serif" font-size="14.00" fill="#000000">samples = 7</text>
<text text-anchor="start" x="427" y="-134.3" font-family="Helvetica,sans-Serif" font-size="14.00" fill="#000000">value = [0, 7, 0]</text>
<text text-anchor="start" x="428.5" y="-119.3" font-family="Helvetica,sans-Serif" font-size="14.00" fill="#000000">class = Setosa</text>
</g>
<!-- 8&#45;&gt;9 -->
<g id="edge9" class="edge">
<title>8&#45;&gt;9</title>
<path fill="none" stroke="#000000" d="M479.101,-222.8796C478.7425,-212.2134 478.3555,-200.7021 477.9925,-189.9015"/>
<polygon fill="#000000" stroke="#000000" points="481.4875,-189.6917 477.6534,-179.8149 474.4915,-189.9269 481.4875,-189.6917"/>
</g>
<!-- 10 -->
<g id="node11" class="node">
<title>10</title>
<path fill="#caacf4" stroke="#000000" d="M671,-187C671,-187 564,-187 564,-187 558,-187 552,-181 552,-175 552,-175 552,-116 552,-116 552,-110 558,-104 564,-104 564,-104 671,-104 671,-104 677,-104 683,-110 683,-116 683,-116 683,-175 683,-175 683,-181 677,-187 671,-187"/>
<text text-anchor="start" x="563" y="-171.8" font-family="Helvetica,sans-Serif" font-size="14.00" fill="#000000">sepal.width ≤ 9.5</text>
<text text-anchor="start" x="579.5" y="-156.8" font-family="Helvetica,sans-Serif" font-size="14.00" fill="#000000">gini = 0.519</text>
<text text-anchor="start" x="573.5" y="-141.8" font-family="Helvetica,sans-Serif" font-size="14.00" fill="#000000">samples = 46</text>
<text text-anchor="start" x="560" y="-126.8" font-family="Helvetica,sans-Serif" font-size="14.00" fill="#000000">value = [3, 15, 28]</text>
<text text-anchor="start" x="569.5" y="-111.8" font-family="Helvetica,sans-Serif" font-size="14.00" fill="#000000">class = Setosa</text>
</g>
<!-- 8&#45;&gt;10 -->
<g id="edge10" class="edge">
<title>8&#45;&gt;10</title>
<path fill="none" stroke="#000000" d="M528.416,-222.8796C539.1993,-213.513 550.7329,-203.4948 561.8039,-193.8784"/>
<polygon fill="#000000" stroke="#000000" points="564.1251,-196.4982 569.3795,-187.2981 559.5347,-191.2134 564.1251,-196.4982"/>
</g>
<!-- 11 -->
<g id="node12" class="node">
<title>11</title>
<path fill="#ab7bee" stroke="#000000" d="M665,-68C665,-68 566,-68 566,-68 560,-68 554,-62 554,-56 554,-56 554,-12 554,-12 554,-6 560,0 566,0 566,0 665,0 665,0 671,0 677,-6 677,-12 677,-12 677,-56 677,-56 677,-62 671,-68 665,-68"/>
<text text-anchor="start" x="577.5" y="-52.8" font-family="Helvetica,sans-Serif" font-size="14.00" fill="#000000">gini = 0.401</text>
<text text-anchor="start" x="571.5" y="-37.8" font-family="Helvetica,sans-Serif" font-size="14.00" fill="#000000">samples = 27</text>
<text text-anchor="start" x="562" y="-22.8" font-family="Helvetica,sans-Serif" font-size="14.00" fill="#000000">value = [1, 6, 20]</text>
<text text-anchor="start" x="567.5" y="-7.8" font-family="Helvetica,sans-Serif" font-size="14.00" fill="#000000">class = Setosa</text>
</g>
<!-- 10&#45;&gt;11 -->
<g id="edge11" class="edge">
<title>10&#45;&gt;11</title>
<path fill="none" stroke="#000000" d="M616.7553,-103.9815C616.6053,-95.618 616.447,-86.7965 616.2954,-78.3409"/>
<polygon fill="#000000" stroke="#000000" points="619.7935,-78.1993 616.1146,-68.2637 612.7946,-78.3249 619.7935,-78.1993"/>
</g>
<!-- 12 -->
<g id="node13" class="node">
<title>12</title>
<path fill="#edfdf4" stroke="#000000" d="M798,-68C798,-68 707,-68 707,-68 701,-68 695,-62 695,-56 695,-56 695,-12 695,-12 695,-6 701,0 707,0 707,0 798,0 798,0 804,0 810,-6 810,-12 810,-12 810,-56 810,-56 810,-62 804,-68 798,-68"/>
<text text-anchor="start" x="714.5" y="-52.8" font-family="Helvetica,sans-Serif" font-size="14.00" fill="#000000">gini = 0.587</text>
<text text-anchor="start" x="708.5" y="-37.8" font-family="Helvetica,sans-Serif" font-size="14.00" fill="#000000">samples = 19</text>
<text text-anchor="start" x="703" y="-22.8" font-family="Helvetica,sans-Serif" font-size="14.00" fill="#000000">value = [2, 9, 8]</text>
<text text-anchor="start" x="704.5" y="-7.8" font-family="Helvetica,sans-Serif" font-size="14.00" fill="#000000">class = Setosa</text>
</g>
<!-- 10&#45;&gt;12 -->
<g id="edge12" class="edge">
<title>10&#45;&gt;12</title>
<path fill="none" stroke="#000000" d="M667.769,-103.9815C679.3418,-94.4232 691.6389,-84.2668 703.1713,-74.7419"/>
<polygon fill="#000000" stroke="#000000" points="705.5334,-77.3304 711.0148,-68.2637 701.0757,-71.9332 705.5334,-77.3304"/>
</g>
</g>
</svg>
